<?xml version="1.0" encoding="UTF-8"?><svg id="a" xmlns="http://www.w3.org/2000/svg" viewBox="0 0 80 80"><rect x=".06" width="80" height="80" rx="10" ry="10" style="fill:#c33;"/><path d="M17.61,39.94c.07.28.1.62.1,1.04s-.03.75-.1,1.04h-2.08c-.07-.29-.1-.64-.1-1.04s.03-.76.1-1.04h-1.3c-.07-.29-.1-.64-.1-1.04s.03-.76.1-1.04h-1.3c-.07-.29-.1-.64-.1-1.04s.03-.76.1-1.04h-1.3c-.07-.29-.1-.64-.1-1.04s.03-.76.1-1.04h1.3c-.07-.29-.1-.64-.1-1.04s.03-.76.1-1.04h1.3c-.07-.29-.1-.64-.1-1.04s.03-.76.1-1.04h1.3c-.07-.29-.1-.64-.1-1.04s.03-.76.1-1.04h2.08c.07.28.1.62.1,1.04s-.03.75-.1,1.04h-1.3c.07.28.1.62.1,1.04s-.04.75-.1,1.04h-1.3c.07.28.1.62.1,1.04s-.03.75-.1,1.04h-1.3c.07.28.1.62.1,1.04s-.04.75-.1,1.04h1.3c.07.28.1.62.1,1.04s-.03.75-.1,1.04h1.3c.07.28.1.62.1,1.04s-.04.75-.1,1.04h1.3Z" style="fill:#fff;"/><path d="M29.29,36.82c0,.4-.03.75-.1,1.04.07.28.1.62.1,1.04s-.03.75-.1,1.04h-1.04c.07.28.1.62.1,1.04s-.03.75-.1,1.04h-6.24c-.07-.29-.1-.64-.1-1.04s.03-.76.1-1.04h-1.04c-.07-.29-.1-.64-.1-1.04s.03-.76.1-1.04h2.08c.07.28.1.62.1,1.04s-.04.75-.1,1.04h4.16c-.07-.29-.1-.64-.1-1.04s.03-.76.1-1.04c-.07-.29-.1-.64-.1-1.04s.03-.76.1-1.04h-5.2c-.07-.29-.1-.64-.1-1.04s.03-.76.1-1.04h-1.04c-.07-.29-.1-.64-.1-1.04s.03-.76.1-1.04c-.07-.29-.1-.64-.1-1.04s.03-.76.1-1.04h1.04c-.07-.29-.1-.64-.1-1.04s.03-.76.1-1.04h6.24c.07.28.1.62.1,1.04s-.03.75-.1,1.04h1.04c.07.28.1.62.1,1.04s-.03.75-.1,1.04h-2.08c-.07-.29-.1-.64-.1-1.04s.03-.76.1-1.04h-4.16c.07.28.1.62.1,1.04s-.04.75-.1,1.04c.07.28.1.62.1,1.04s-.04.75-.1,1.04h5.2c.07.28.1.62.1,1.04s-.03.75-.1,1.04h1.04c.07.28.1.62.1,1.04Z" style="fill:#fff;"/><path d="M34.38,35.78c.07.28.1.62.1,1.04s-.04.75-.1,1.04c.07.28.1.62.1,1.04s-.04.75-.1,1.04h4.16c.07.28.1.62.1,1.04s-.03.75-.1,1.04h-6.24c-.07-.29-.1-.64-.1-1.04s.03-.76.1-1.04c-.07-.29-.1-.64-.1-1.04s.03-.76.1-1.04c-.07-.29-.1-.64-.1-1.04s.03-.76.1-1.04c-.07-.29-.1-.64-.1-1.04s.03-.76.1-1.04c-.07-.29-.1-.64-.1-1.04s.03-.76.1-1.04c-.07-.29-.1-.64-.1-1.04s.03-.76.1-1.04c-.07-.29-.1-.64-.1-1.04s.03-.76.1-1.04h6.24c.07.28.1.62.1,1.04s-.03.75-.1,1.04h-4.16c.07.28.1.62.1,1.04s-.04.75-.1,1.04c.07.28.1.62.1,1.04s-.04.75-.1,1.04h4.16c.07.28.1.62.1,1.04s-.03.75-.1,1.04h-4.16Z" style="fill:#fff;"/><path d="M50.09,34.74c0,.4-.03.75-.1,1.04.07.28.1.62.1,1.04s-.03.75-.1,1.04h-.78c.07.28.1.62.1,1.04s-.04.75-.1,1.04h-1.3c.07.28.1.62.1,1.04s-.03.75-.1,1.04h-4.16c-.07-.29-.1-.64-.1-1.04s.03-.76.1-1.04h-1.3c-.07-.29-.1-.64-.1-1.04s.03-.76.1-1.04h-.78c-.07-.29-.1-.64-.1-1.04s.03-.76.1-1.04c-.07-.29-.1-.64-.1-1.04s.03-.76.1-1.04c-.07-.29-.1-.64-.1-1.04s.03-.76.1-1.04h.78c-.07-.29-.1-.64-.1-1.04s.03-.76.1-1.04h1.3c-.07-.29-.1-.64-.1-1.04s.03-.76.1-1.04h4.16c.07.28.1.62.1,1.04s-.03.75-.1,1.04h1.3c.07.28.1.62.1,1.04s-.04.75-.1,1.04h.78c.07.28.1.62.1,1.04s-.03.75-.1,1.04c.07.28.1.62.1,1.04ZM47.8,36.82c0-.42.03-.76.1-1.04-.07-.29-.1-.64-.1-1.04s.03-.76.1-1.04c-.07-.29-.1-.64-.1-1.04s.03-.76.1-1.04h-.78c-.07-.29-.1-.64-.1-1.04s.03-.76.1-1.04h-2.6c.07.28.1.62.1,1.04s-.03.75-.1,1.04h-.78c.07.28.1.62.1,1.04s-.04.75-.1,1.04c.07.28.1.62.1,1.04s-.04.75-.1,1.04c.07.28.1.62.1,1.04s-.04.75-.1,1.04h.78c.07.28.1.62.1,1.04s-.03.75-.1,1.04h2.6c-.07-.29-.1-.64-.1-1.04s.03-.76.1-1.04h.78c-.07-.29-.1-.64-.1-1.04Z" style="fill:#fff;"/><path d="M60.38,27.46h-.78c.07.28.1.62.1,1.04s-.04.75-.1,1.04h-.78c.07.28.1.62.1,1.04s-.03.75-.1,1.04h-.78c.07.28.1.62.1,1.04s-.04.75-.1,1.04h-.78c.07.28.1.62.1,1.04s-.04.75-.1,1.04h-.78c.07.28.1.62.1,1.04s-.03.75-.1,1.04h-.78c.07.28.1.62.1,1.04s-.04.75-.1,1.04h-.78c.07.28.1.62.1,1.04s-.03.75-.1,1.04h-.78c.07.28.1.62.1,1.04s-.04.75-.1,1.04h-2.08c-.07-.29-.1-.64-.1-1.04s.03-.76.1-1.04h.78c-.07-.29-.1-.64-.1-1.04s.03-.76.1-1.04h.78c-.07-.29-.1-.64-.1-1.04s.03-.76.1-1.04h.78c-.07-.29-.1-.64-.1-1.04s.03-.76.1-1.04h.78c-.07-.29-.1-.64-.1-1.04s.03-.76.1-1.04h.78c-.07-.29-.1-.64-.1-1.04s.03-.76.1-1.04h.78c-.07-.29-.1-.64-.1-1.04s.03-.76.1-1.04h.78c-.07-.29-.1-.64-.1-1.04s.03-.76.1-1.04h.78c-.07-.29-.1-.64-.1-1.04s.03-.76.1-1.04h2.08c.07.28.1.62.1,1.04s-.03.75-.1,1.04Z" style="fill:#fff;"/><path d="M69.61,35.78h-1.3c.07.28.1.62.1,1.04s-.04.75-.1,1.04h-1.3c.07.28.1.62.1,1.04s-.03.75-.1,1.04h-1.3c.07.28.1.62.1,1.04s-.04.75-.1,1.04h-2.08c-.07-.29-.1-.64-.1-1.04s.03-.76.1-1.04h1.3c-.07-.29-.1-.64-.1-1.04s.03-.76.1-1.04h1.3c-.07-.29-.1-.64-.1-1.04s.03-.76.1-1.04h1.3c-.07-.29-.1-.64-.1-1.04s.03-.76.1-1.04h-1.3c-.07-.29-.1-.64-.1-1.04s.03-.76.1-1.04h-1.3c-.07-.29-.1-.64-.1-1.04s.03-.76.1-1.04h-1.3c-.07-.29-.1-.64-.1-1.04s.03-.76.1-1.04h2.08c.07.28.1.62.1,1.04s-.04.75-.1,1.04h1.3c.07.28.1.62.1,1.04s-.03.75-.1,1.04h1.3c.07.28.1.62.1,1.04s-.04.75-.1,1.04h1.3c.07.28.1.62.1,1.04s-.03.75-.1,1.04Z" style="fill:#fff;"/><path d="M26.71,49.19c.04.15.05.35.05.58s-.02.42-.05.58h-.54c.04.15.05.35.05.58s-.02.42-.05.58h-2.67c.04.16.05.35.05.58s-.02.42-.05.58c.04.16.05.35.05.58s-.02.42-.05.58c.04.15.05.35.05.58s-.02.42-.05.58h-1.07c-.04-.16-.05-.36-.05-.58s.02-.43.05-.58c-.04-.16-.05-.36-.05-.58s.02-.43.05-.58c-.04-.16-.05-.36-.05-.58s.02-.43.05-.58c-.04-.16-.05-.36-.05-.58s.02-.43.05-.58c-.04-.16-.05-.36-.05-.58s.02-.43.05-.58c-.04-.16-.05-.36-.05-.58s.02-.43.05-.58c-.04-.16-.05-.36-.05-.58s.02-.43.05-.58h3.74c.04.16.05.35.05.58s-.02.42-.05.58h.54c.04.16.05.35.05.58s-.02.42-.05.58ZM25.59,49.77c0-.23.02-.43.05-.58-.04-.16-.05-.36-.05-.58s.02-.43.05-.58h-2.14c.04.16.05.35.05.58s-.02.42-.05.58c.04.15.05.35.05.58s-.02.42-.05.58h2.14c-.04-.16-.05-.36-.05-.58Z" style="fill:#fff;"/><path d="M32.06,51.51c.04.16.05.35.05.58s-.02.42-.05.58h-2.81c.04.16.05.35.05.58s-.02.42-.05.58h2.27c.04.15.05.35.05.58s-.02.42-.05.58h-2.67c-.04-.16-.05-.36-.05-.58s.02-.43.05-.58h-.67c-.04-.16-.05-.36-.05-.58s.02-.43.05-.58h-.4c-.04-.16-.05-.36-.05-.58s.02-.43.05-.58h.4c-.04-.16-.05-.36-.05-.58s.02-.43.05-.58h.67c-.04-.16-.05-.36-.05-.58s.02-.43.05-.58h2.67c.04.15.05.35.05.58s-.02.42-.05.58h.54c.04.15.05.35.05.58s-.02.42-.05.58ZM30.94,50.93c0-.23.02-.43.05-.58h-1.74c.04.15.05.35.05.58s-.02.42-.05.58h1.74c-.04-.16-.05-.36-.05-.58Z" style="fill:#fff;"/><path d="M37.47,50.93c0,.22-.02.42-.05.58h-1.07c-.04-.16-.05-.36-.05-.58s.02-.43.05-.58h-.94c.04.15.05.35.05.58s-.02.42-.05.58h-.4c.04.16.05.35.05.58s-.02.42-.05.58c.04.16.05.35.05.58s-.02.42-.05.58h.8c.04.15.05.35.05.58s-.02.42-.05.58h-2.67c-.04-.16-.05-.36-.05-.58s.02-.43.05-.58h.8c-.04-.16-.05-.36-.05-.58s.02-.43.05-.58c-.04-.16-.05-.36-.05-.58s.02-.43.05-.58c-.04-.16-.05-.36-.05-.58s.02-.43.05-.58h-.8c-.04-.16-.05-.36-.05-.58s.02-.43.05-.58h1.34c.04.15.05.35.05.58s-.02.42-.05.58h.53c-.04-.16-.05-.36-.05-.58s.02-.43.05-.58h2.01c.04.15.05.35.05.58s-.02.42-.05.58h.4c.04.15.05.35.05.58Z" style="fill:#fff;"/><path d="M42.23,49.19c.04.15.05.35.05.58s-.02.42-.05.58h-1.6c.04.15.05.35.05.58s-.02.42-.05.58c.04.16.05.35.05.58s-.02.42-.05.58c.04.16.05.35.05.58s-.02.42-.05.58h1.07c.04.15.05.35.05.58s-.02.42-.05.58h-2.67c-.04-.16-.05-.36-.05-.58s.02-.43.05-.58h.53c-.04-.16-.05-.36-.05-.58s.02-.43.05-.58c-.04-.16-.05-.36-.05-.58s.02-.43.05-.58c-.04-.16-.05-.36-.05-.58s.02-.43.05-.58h-.53c-.04-.16-.05-.36-.05-.58s.02-.43.05-.58h.53c-.04-.16-.05-.36-.05-.58s.02-.43.05-.58h.54c-.04-.16-.05-.36-.05-.58s.02-.43.05-.58h2.14c.04.16.05.35.05.58s-.02.42-.05.58h-1.6c.04.16.05.35.05.58s-.02.42-.05.58h1.6Z" style="fill:#fff;"/><path d="M48.11,51.51c.04.16.05.35.05.58s-.02.42-.05.58h-2.81c.04.16.05.35.05.58s-.02.42-.05.58h2.27c.04.15.05.35.05.58s-.02.42-.05.58h-2.67c-.04-.16-.05-.36-.05-.58s.02-.43.05-.58h-.67c-.04-.16-.05-.36-.05-.58s.02-.43.05-.58h-.4c-.04-.16-.05-.36-.05-.58s.02-.43.05-.58h.4c-.04-.16-.05-.36-.05-.58s.02-.43.05-.58h.67c-.04-.16-.05-.36-.05-.58s.02-.43.05-.58h2.67c.04.15.05.35.05.58s-.02.42-.05.58h.54c.04.15.05.35.05.58s-.02.42-.05.58ZM46.99,50.93c0-.23.02-.43.05-.58h-1.74c.04.15.05.35.05.58s-.02.42-.05.58h1.74c-.04-.16-.05-.36-.05-.58Z" style="fill:#fff;"/><path d="M53.46,52.67c.04.16.05.35.05.58s-.02.42-.05.58h-.54c.04.15.05.35.05.58s-.02.42-.05.58h-2.67c-.04-.16-.05-.36-.05-.58s.02-.43.05-.58h-.53c-.04-.16-.05-.36-.05-.58s.02-.43.05-.58h-.54c-.04-.16-.05-.36-.05-.58s.02-.43.05-.58h.54c-.04-.16-.05-.36-.05-.58s.02-.43.05-.58h.53c-.04-.16-.05-.36-.05-.58s.02-.43.05-.58h2.67c.04.15.05.35.05.58s-.02.42-.05.58h.54c.04.15.05.35.05.58s-.02.42-.05.58h-1.07c-.04-.16-.05-.36-.05-.58s.02-.43.05-.58h-1.6c.04.15.05.35.05.58s-.02.42-.05.58h-.54c.04.16.05.35.05.58s-.02.42-.05.58h.54c.04.16.05.35.05.58s-.02.42-.05.58h1.6c-.04-.16-.05-.36-.05-.58s.02-.43.05-.58h1.07Z" style="fill:#fff;"/><path d="M58.27,53.84c.04.15.05.35.05.58s-.02.42-.05.58h-2.14c-.04-.16-.05-.36-.05-.58s.02-.43.05-.58h-.54c-.04-.16-.05-.36-.05-.58s.02-.43.05-.58c-.04-.16-.05-.36-.05-.58s.02-.43.05-.58c-.04-.16-.05-.36-.05-.58s.02-.43.05-.58h-1.07c-.04-.16-.05-.36-.05-.58s.02-.43.05-.58h1.07c-.04-.16-.05-.36-.05-.58s.02-.43.05-.58c-.04-.16-.05-.36-.05-.58s.02-.43.05-.58h1.07c.04.16.05.35.05.58s-.02.42-.05.58c.04.16.05.35.05.58s-.02.42-.05.58h1.6c.04.15.05.35.05.58s-.02.42-.05.58h-1.6c.04.15.05.35.05.58s-.02.42-.05.58c.04.16.05.35.05.58s-.02.42-.05.58c.04.16.05.35.05.58s-.02.42-.05.58h1.6Z" style="fill:#fff;"/></svg>