<?xml version="1.0" encoding="UTF-8"?><svg id="a" xmlns="http://www.w3.org/2000/svg" viewBox="0 0 201.52 34.01"><path d="M9.6,24.89c.11.43.16.96.16,1.6s-.05,1.15-.16,1.6h-3.2c-.11-.45-.16-.99-.16-1.6s.05-1.17.16-1.6h-2c-.11-.45-.16-.99-.16-1.6s.05-1.17.16-1.6h-2c-.11-.45-.16-.99-.16-1.6s.05-1.17.16-1.6H.4c-.11-.45-.16-.99-.16-1.6s.05-1.17.16-1.6h2c-.11-.45-.16-.99-.16-1.6s.05-1.17.16-1.6h2c-.11-.45-.16-.99-.16-1.6s.05-1.17.16-1.6h2c-.11-.45-.16-.99-.16-1.6s.05-1.17.16-1.6h3.2c.11.43.16.96.16,1.6s-.05,1.15-.16,1.6h-2c.11.43.16.96.16,1.6s-.05,1.15-.16,1.6h-2c.11.43.16.96.16,1.6s-.05,1.15-.16,1.6h-2c.11.43.16.96.16,1.6s-.05,1.15-.16,1.6h2c.11.43.16.96.16,1.6s-.05,1.15-.16,1.6h2c.11.43.16.96.16,1.6s-.05,1.15-.16,1.6h2Z" style="fill:#c33;"/><path d="M27.56,20.09c0,.61-.05,1.15-.16,1.6.11.43.16.96.16,1.6s-.05,1.15-.16,1.6h-1.6c.11.43.16.96.16,1.6s-.05,1.15-.16,1.6h-9.6c-.11-.45-.16-.99-.16-1.6s.05-1.17.16-1.6h-1.6c-.11-.45-.16-.99-.16-1.6s.05-1.17.16-1.6h3.2c.11.43.16.96.16,1.6s-.05,1.15-.16,1.6h6.4c-.11-.45-.16-.99-.16-1.6s.05-1.17.16-1.6c-.11-.45-.16-.99-.16-1.6s.05-1.17.16-1.6h-8c-.11-.45-.16-.99-.16-1.6s.05-1.17.16-1.6h-1.6c-.11-.45-.16-.99-.16-1.6s.05-1.17.16-1.6c-.11-.45-.16-.99-.16-1.6s.05-1.17.16-1.6h1.6c-.11-.45-.16-.99-.16-1.6s.05-1.17.16-1.6h9.6c.11.43.16.96.16,1.6s-.05,1.15-.16,1.6h1.6c.11.43.16.96.16,1.6s-.05,1.15-.16,1.6h-3.2c-.11-.45-.16-.99-.16-1.6s.05-1.17.16-1.6h-6.4c.11.43.16.96.16,1.6s-.05,1.15-.16,1.6c.11.43.16.96.16,1.6s-.05,1.15-.16,1.6h8c.11.43.16.96.16,1.6s-.05,1.15-.16,1.6h1.6c.11.43.16.96.16,1.6Z" style="fill:#c33;"/><path d="M35.4,18.49c.11.43.16.96.16,1.6s-.05,1.15-.16,1.6c.11.43.16.96.16,1.6s-.05,1.15-.16,1.6h6.4c.11.43.16.96.16,1.6s-.05,1.15-.16,1.6h-9.6c-.11-.45-.16-.99-.16-1.6s.05-1.17.16-1.6c-.11-.45-.16-.99-.16-1.6s.05-1.17.16-1.6c-.11-.45-.16-.99-.16-1.6s.05-1.17.16-1.6c-.11-.45-.16-.99-.16-1.6s.05-1.17.16-1.6c-.11-.45-.16-.99-.16-1.6s.05-1.17.16-1.6c-.11-.45-.16-.99-.16-1.6s.05-1.17.16-1.6c-.11-.45-.16-.99-.16-1.6s.05-1.17.16-1.6h9.6c.11.43.16.96.16,1.6s-.05,1.15-.16,1.6h-6.4c.11.43.16.96.16,1.6s-.05,1.15-.16,1.6c.11.43.16.96.16,1.6s-.05,1.15-.16,1.6h6.4c.11.43.16.96.16,1.6s-.05,1.15-.16,1.6h-6.4Z" style="fill:#c33;"/><path d="M59.56,16.89c0,.61-.05,1.15-.16,1.6.11.43.16.96.16,1.6s-.05,1.15-.16,1.6h-1.2c.11.43.16.96.16,1.6s-.05,1.15-.16,1.6h-2c.11.43.16.96.16,1.6s-.05,1.15-.16,1.6h-6.4c-.11-.45-.16-.99-.16-1.6s.05-1.17.16-1.6h-2c-.11-.45-.16-.99-.16-1.6s.05-1.17.16-1.6h-1.2c-.11-.45-.16-.99-.16-1.6s.05-1.17.16-1.6c-.11-.45-.16-.99-.16-1.6s.05-1.17.16-1.6c-.11-.45-.16-.99-.16-1.6s.05-1.17.16-1.6h1.2c-.11-.45-.16-.99-.16-1.6s.05-1.17.16-1.6h2c-.11-.45-.16-.99-.16-1.6s.05-1.17.16-1.6h6.4c.11.43.16.96.16,1.6s-.05,1.15-.16,1.6h2c.11.43.16.96.16,1.6s-.05,1.15-.16,1.6h1.2c.11.43.16.96.16,1.6s-.05,1.15-.16,1.6c.11.43.16.96.16,1.6ZM56.04,20.09c0-.64.05-1.17.16-1.6-.11-.45-.16-.99-.16-1.6s.05-1.17.16-1.6c-.11-.45-.16-.99-.16-1.6s.05-1.17.16-1.6h-1.2c-.11-.45-.16-.99-.16-1.6s.05-1.17.16-1.6h-4c.11.43.16.96.16,1.6s-.05,1.15-.16,1.6h-1.2c.11.43.16.96.16,1.6s-.05,1.15-.16,1.6c.11.43.16.96.16,1.6s-.05,1.15-.16,1.6c.11.43.16.96.16,1.6s-.05,1.15-.16,1.6h1.2c.11.43.16.96.16,1.6s-.05,1.15-.16,1.6h4c-.11-.45-.16-.99-.16-1.6s.05-1.17.16-1.6h1.2c-.11-.45-.16-.99-.16-1.6Z" style="fill:#c33;"/><path d="M75.4,12.09c.11.43.16.96.16,1.6s-.05,1.15-.16,1.6h-1.6c.11.43.16.96.16,1.6s-.05,1.15-.16,1.6h-8c.11.43.16.96.16,1.6s-.05,1.15-.16,1.6c.11.43.16.96.16,1.6s-.05,1.15-.16,1.6c.11.43.16.96.16,1.6s-.05,1.15-.16,1.6h-3.2c-.11-.45-.16-.99-.16-1.6s.05-1.17.16-1.6c-.11-.45-.16-.99-.16-1.6s.05-1.17.16-1.6c-.11-.45-.16-.99-.16-1.6s.05-1.17.16-1.6c-.11-.45-.16-.99-.16-1.6s.05-1.17.16-1.6c-.11-.45-.16-.99-.16-1.6s.05-1.17.16-1.6c-.11-.45-.16-.99-.16-1.6s.05-1.17.16-1.6c-.11-.45-.16-.99-.16-1.6s.05-1.17.16-1.6h11.2c.11.43.16.96.16,1.6s-.05,1.15-.16,1.6h1.6c.11.43.16.96.16,1.6s-.05,1.15-.16,1.6ZM72.04,13.69c0-.64.05-1.17.16-1.6-.11-.45-.16-.99-.16-1.6s.05-1.17.16-1.6h-6.4c.11.43.16.96.16,1.6s-.05,1.15-.16,1.6c.11.43.16.96.16,1.6s-.05,1.15-.16,1.6h6.4c-.11-.45-.16-.99-.16-1.6Z" style="fill:#c33;"/><path d="M91.4,18.49c.11.43.16.96.16,1.6s-.05,1.15-.16,1.6h-8.4c.11.43.16.96.16,1.6s-.05,1.15-.16,1.6h6.8c.11.43.16.96.16,1.6s-.05,1.15-.16,1.6h-8c-.11-.45-.16-.99-.16-1.6s.05-1.17.16-1.6h-2c-.11-.45-.16-.99-.16-1.6s.05-1.17.16-1.6h-1.2c-.11-.45-.16-.99-.16-1.6s.05-1.17.16-1.6h1.2c-.11-.45-.16-.99-.16-1.6s.05-1.17.16-1.6h2c-.11-.45-.16-.99-.16-1.6s.05-1.17.16-1.6h8c.11.43.16.96.16,1.6s-.05,1.15-.16,1.6h1.6c.11.43.16.96.16,1.6s-.05,1.15-.16,1.6ZM88.04,16.89c0-.64.05-1.17.16-1.6h-5.2c.11.43.16.96.16,1.6s-.05,1.15-.16,1.6h5.2c-.11-.45-.16-.99-.16-1.6Z" style="fill:#c33;"/><path d="M107.56,16.89c0,.61-.05,1.15-.16,1.6h-3.2c-.11-.45-.16-.99-.16-1.6s.05-1.17.16-1.6h-2.8c.11.43.16.96.16,1.6s-.05,1.15-.16,1.6h-1.2c.11.43.16.96.16,1.6s-.05,1.15-.16,1.6c.11.43.16.96.16,1.6s-.05,1.15-.16,1.6h2.4c.11.43.16.96.16,1.6s-.05,1.15-.16,1.6h-8c-.11-.45-.16-.99-.16-1.6s.05-1.17.16-1.6h2.4c-.11-.45-.16-.99-.16-1.6s.05-1.17.16-1.6c-.11-.45-.16-.99-.16-1.6s.05-1.17.16-1.6c-.11-.45-.16-.99-.16-1.6s.05-1.17.16-1.6h-2.4c-.11-.45-.16-.99-.16-1.6s.05-1.17.16-1.6h4c.11.43.16.96.16,1.6s-.05,1.15-.16,1.6h1.6c-.11-.45-.16-.99-.16-1.6s.05-1.17.16-1.6h6c.11.43.16.96.16,1.6s-.05,1.15-.16,1.6h1.2c.11.43.16.96.16,1.6Z" style="fill:#c33;"/><path d="M121.8,12.09c.11.43.16.96.16,1.6s-.05,1.15-.16,1.6h-4.8c.11.43.16.96.16,1.6s-.05,1.15-.16,1.6c.11.43.16.96.16,1.6s-.05,1.15-.16,1.6c.11.43.16.96.16,1.6s-.05,1.15-.16,1.6h3.2c.11.43.16.96.16,1.6s-.05,1.15-.16,1.6h-8c-.11-.45-.16-.99-.16-1.6s.05-1.17.16-1.6h1.6c-.11-.45-.16-.99-.16-1.6s.05-1.17.16-1.6c-.11-.45-.16-.99-.16-1.6s.05-1.17.16-1.6c-.11-.45-.16-.99-.16-1.6s.05-1.17.16-1.6h-1.6c-.11-.45-.16-.99-.16-1.6s.05-1.17.16-1.6h1.6c-.11-.45-.16-.99-.16-1.6s.05-1.17.16-1.6h1.6c-.11-.45-.16-.99-.16-1.6s.05-1.17.16-1.6h6.4c.11.43.16.96.16,1.6s-.05,1.15-.16,1.6h-4.8c.11.43.16.96.16,1.6s-.05,1.15-.16,1.6h4.8Z" style="fill:#c33;"/><path d="M139.4,18.49c.11.43.16.96.16,1.6s-.05,1.15-.16,1.6h-8.4c.11.43.16.96.16,1.6s-.05,1.15-.16,1.6h6.8c.11.43.16.96.16,1.6s-.05,1.15-.16,1.6h-8c-.11-.45-.16-.99-.16-1.6s.05-1.17.16-1.6h-2c-.11-.45-.16-.99-.16-1.6s.05-1.17.16-1.6h-1.2c-.11-.45-.16-.99-.16-1.6s.05-1.17.16-1.6h1.2c-.11-.45-.16-.99-.16-1.6s.05-1.17.16-1.6h2c-.11-.45-.16-.99-.16-1.6s.05-1.17.16-1.6h8c.11.43.16.96.16,1.6s-.05,1.15-.16,1.6h1.6c.11.43.16.96.16,1.6s-.05,1.15-.16,1.6ZM136.04,16.89c0-.64.05-1.17.16-1.6h-5.2c.11.43.16.96.16,1.6s-.05,1.15-.16,1.6h5.2c-.11-.45-.16-.99-.16-1.6Z" style="fill:#c33;"/><path d="M155.4,21.69c.11.43.16.96.16,1.6s-.05,1.15-.16,1.6h-1.6c.11.43.16.96.16,1.6s-.05,1.15-.16,1.6h-8c-.11-.45-.16-.99-.16-1.6s.05-1.17.16-1.6h-1.6c-.11-.45-.16-.99-.16-1.6s.05-1.17.16-1.6h-1.6c-.11-.45-.16-.99-.16-1.6s.05-1.17.16-1.6h1.6c-.11-.45-.16-.99-.16-1.6s.05-1.17.16-1.6h1.6c-.11-.45-.16-.99-.16-1.6s.05-1.17.16-1.6h8c.11.43.16.96.16,1.6s-.05,1.15-.16,1.6h1.6c.11.43.16.96.16,1.6s-.05,1.15-.16,1.6h-3.2c-.11-.45-.16-.99-.16-1.6s.05-1.17.16-1.6h-4.8c.11.43.16.96.16,1.6s-.05,1.15-.16,1.6h-1.6c.11.43.16.96.16,1.6s-.05,1.15-.16,1.6h1.6c.11.43.16.96.16,1.6s-.05,1.15-.16,1.6h4.8c-.11-.45-.16-.99-.16-1.6s.05-1.17.16-1.6h3.2Z" style="fill:#c33;"/><path d="M169.8,24.89c.11.43.16.96.16,1.6s-.05,1.15-.16,1.6h-6.4c-.11-.45-.16-.99-.16-1.6s.05-1.17.16-1.6h-1.6c-.11-.45-.16-.99-.16-1.6s.05-1.17.16-1.6c-.11-.45-.16-.99-.16-1.6s.05-1.17.16-1.6c-.11-.45-.16-.99-.16-1.6s.05-1.17.16-1.6h-3.2c-.11-.45-.16-.99-.16-1.6s.05-1.17.16-1.6h3.2c-.11-.45-.16-.99-.16-1.6s.05-1.17.16-1.6c-.11-.45-.16-.99-.16-1.6s.05-1.17.16-1.6h3.2c.11.43.16.96.16,1.6s-.05,1.15-.16,1.6c.11.43.16.96.16,1.6s-.05,1.15-.16,1.6h4.8c.11.43.16.96.16,1.6s-.05,1.15-.16,1.6h-4.8c.11.43.16.96.16,1.6s-.05,1.15-.16,1.6c.11.43.16.96.16,1.6s-.05,1.15-.16,1.6c.11.43.16.96.16,1.6s-.05,1.15-.16,1.6h4.8Z" style="fill:#c33;"/><path d="M187.4,5.69h-1.2c.11.43.16.96.16,1.6s-.05,1.15-.16,1.6h-1.2c.11.43.16.96.16,1.6s-.05,1.15-.16,1.6h-1.2c.11.43.16.96.16,1.6s-.05,1.15-.16,1.6h-1.2c.11.43.16.96.16,1.6s-.05,1.15-.16,1.6h-1.2c.11.43.16.96.16,1.6s-.05,1.15-.16,1.6h-1.2c.11.43.16.96.16,1.6s-.05,1.15-.16,1.6h-1.2c.11.43.16.96.16,1.6s-.05,1.15-.16,1.6h-1.2c.11.43.16.96.16,1.6s-.05,1.15-.16,1.6h-3.2c-.11-.45-.16-.99-.16-1.6s.05-1.17.16-1.6h1.2c-.11-.45-.16-.99-.16-1.6s.05-1.17.16-1.6h1.2c-.11-.45-.16-.99-.16-1.6s.05-1.17.16-1.6h1.2c-.11-.45-.16-.99-.16-1.6s.05-1.17.16-1.6h1.2c-.11-.45-.16-.99-.16-1.6s.05-1.17.16-1.6h1.2c-.11-.45-.16-.99-.16-1.6s.05-1.17.16-1.6h1.2c-.11-.45-.16-.99-.16-1.6s.05-1.17.16-1.6h1.2c-.11-.45-.16-.99-.16-1.6s.05-1.17.16-1.6h1.2c-.11-.45-.16-.99-.16-1.6s.05-1.17.16-1.6h3.2c.11.43.16.96.16,1.6s-.05,1.15-.16,1.6Z" style="fill:#c33;"/><path d="M201.6,18.49h-2c.11.43.16.96.16,1.6s-.05,1.15-.16,1.6h-2c.11.43.16.96.16,1.6s-.05,1.15-.16,1.6h-2c.11.43.16.96.16,1.6s-.05,1.15-.16,1.6h-3.2c-.11-.45-.16-.99-.16-1.6s.05-1.17.16-1.6h2c-.11-.45-.16-.99-.16-1.6s.05-1.17.16-1.6h2c-.11-.45-.16-.99-.16-1.6s.05-1.17.16-1.6h2c-.11-.45-.16-.99-.16-1.6s.05-1.17.16-1.6h-2c-.11-.45-.16-.99-.16-1.6s.05-1.17.16-1.6h-2c-.11-.45-.16-.99-.16-1.6s.05-1.17.16-1.6h-2c-.11-.45-.16-.99-.16-1.6s.05-1.17.16-1.6h3.2c.11.43.16.96.16,1.6s-.05,1.15-.16,1.6h2c.11.43.16.96.16,1.6s-.05,1.15-.16,1.6h2c.11.43.16.96.16,1.6s-.05,1.15-.16,1.6h2c.11.43.16.96.16,1.6s-.05,1.15-.16,1.6Z" style="fill:#c33;"/></svg>